<?xml version="1.0" standalone="no"?>
<!DOCTYPE svg PUBLIC "-//W3C//DTD SVG 20010904//EN"
 "http://www.w3.org/TR/2001/REC-SVG-20010904/DTD/svg10.dtd">
<svg version="1.0" xmlns="http://www.w3.org/2000/svg"
 width="348.000000pt" height="348.000000pt" viewBox="0 0 348.000000 348.000000"
 preserveAspectRatio="xMidYMid meet">

<g transform="translate(0.000000,348.000000) scale(0.100000,-0.100000)"
fill="#000000" stroke="none">
<path d="M1363 3185 c-69 -21 -131 -63 -173 -116 -22 -28 -40 -54 -40 -57 0
-4 -4 -13 -9 -20 -6 -11 -16 -8 -45 12 -61 41 -129 59 -209 54 -128 -7 -234
-75 -294 -190 -25 -47 -28 -64 -28 -148 0 -82 4 -103 27 -152 14 -31 44 -74
67 -96 l41 -40 0 -300 c0 -188 4 -311 11 -329 13 -34 64 -90 101 -109 l27 -14
3 -578 3 -577 24 -48 c33 -67 101 -134 169 -165 l57 -27 561 -3 c547 -3 563
-2 617 18 73 27 128 69 167 124 60 89 63 105 68 407 l4 276 69 7 c143 13 252
84 309 201 25 49 25 55 28 341 3 275 2 293 -18 347 -48 127 -167 211 -319 224
l-83 8 -19 51 c-11 28 -35 69 -54 91 l-34 40 30 29 c16 16 42 53 56 83 85 172
-47 391 -236 391 -34 0 -38 4 -59 50 -33 73 -117 154 -199 193 -63 30 -75 32
-173 32 -75 -1 -115 -5 -142 -17 -35 -16 -40 -16 -92 3 -64 22 -151 24 -213 4z
m197 -150 c61 -31 61 -31 135 0 101 41 199 31 277 -28 54 -41 84 -86 104 -153
21 -72 32 -79 130 -79 78 0 84 -2 113 -30 64 -60 61 -146 -5 -205 -28 -24 -44
-30 -80 -30 -54 0 -79 11 -121 56 -41 43 -77 45 -127 5 -91 -73 -216 -81 -320
-22 -67 37 -80 38 -111 6 -24 -23 -25 -29 -25 -155 0 -117 -2 -132 -20 -150
-29 -29 -74 -26 -99 6 -18 23 -21 41 -21 119 0 129 0 129 -184 133 -169 4
-209 -5 -225 -50 -7 -20 -11 -136 -11 -319 0 -276 -1 -290 -20 -309 -25 -25
-61 -26 -89 -2 -20 17 -21 26 -23 345 l-3 329 -52 46 c-60 54 -83 101 -83 169
1 118 87 203 208 203 95 0 186 -76 198 -165 10 -69 23 -93 61 -106 56 -18 123
10 123 53 0 10 -9 47 -21 81 -18 54 -20 69 -10 113 31 135 175 203 301 139z
m534 -635 c22 -17 47 -30 56 -30 45 0 119 -32 153 -67 69 -68 67 -47 67 -910
0 -525 -4 -788 -11 -817 -14 -56 -62 -114 -113 -137 -38 -17 -77 -19 -574 -19
-458 0 -538 2 -570 15 -47 20 -78 50 -105 100 -22 39 -22 49 -25 592 l-3 552
29 15 c22 11 74 61 104 99 1 1 4 130 7 287 l6 285 68 3 67 3 0 -41 c0 -140 88
-239 213 -240 81 0 159 54 191 132 9 21 16 66 16 103 l0 65 28 -7 c15 -5 70
-8 122 -8 82 0 102 4 150 27 70 34 77 34 124 -2z m539 -321 c21 -6 56 -26 77
-45 68 -62 70 -71 70 -362 0 -144 -4 -272 -10 -286 -5 -14 -26 -43 -46 -65
-39 -44 -106 -71 -176 -71 l-38 0 0 420 0 420 43 0 c23 0 59 -5 80 -11z"/>
<path d="M1760 2970 c-43 -43 -16 -101 55 -119 46 -12 51 -17 72 -86 12 -43
53 -61 91 -41 44 22 51 50 31 119 -30 108 -188 188 -249 127z"/>
<path d="M1275 1785 l-25 -24 0 -431 c0 -491 0 -489 76 -490 66 0 64 -12 64
483 0 446 0 446 -22 467 -29 27 -64 25 -93 -5z"/>
<path d="M1625 1785 l-25 -24 0 -438 c0 -495 -2 -483 70 -483 72 0 70 -12 70
483 l0 438 -25 24 c-13 14 -33 25 -45 25 -11 0 -32 -11 -45 -25z"/>
<path d="M1972 1787 c-22 -23 -22 -25 -22 -463 0 -489 -1 -484 64 -484 18 0
41 6 52 14 18 14 19 32 22 460 l3 446 -25 25 c-31 31 -66 32 -94 2z"/>
</g>
</svg>
